<svg id="Layer_1" data-name="Layer 1" xmlns="http://www.w3.org/2000/svg" width="288.9032" height="288.9032" viewBox="0 0 288.9032 288.9032"><defs><style>.cls-1{fill:#f8eed0;}.cls-2{fill:#fcb415;}.cls-3{fill:#fff;}.cls-4{fill:#333;}</style></defs><title>20190510_Timescale_Logo_Tiger</title><circle class="cls-1" cx="144.4516" cy="144.4516" r="144.4333"/><ellipse class="cls-2" cx="144.4516" cy="144.2558" rx="96.8318" ry="96.8439"/><ellipse class="cls-3" cx="194.0643" cy="132.0459" rx="27.7237" ry="21.6226" transform="translate(-7.3642 255.8344) rotate(-67.6685)"/><ellipse class="cls-3" cx="144.6938" cy="234.25" rx="27.7625" ry="30.052"/><ellipse class="cls-3" cx="106.8454" cy="132.0459" rx="21.6226" ry="27.7237" transform="translate(-47.7078 44.9524) rotate(-22.3315)"/><path id="path14_fill" data-name="path14 fill" class="cls-4" d="M199.2046,242.9806a104.7171,104.7171,0,0,0,54.7569-81.7233l16.769,19.265a124.7813,124.7813,0,0,1-71.4972,84.47,97.3841,97.3841,0,0,0,.4913-10.3082C199.7246,250.7093,199.5473,246.8,199.2046,242.9806Zm-82.9756,6.8517a105.1978,105.1978,0,0,0,68.5587-.4763A68.17,68.17,0,0,1,174.36,272.7644a125.7953,125.7953,0,0,1-47.6177.2818A67.567,67.567,0,0,1,116.229,249.8323Zm-15.2244-6.55A104.7116,104.7116,0,0,1,45.621,160.66L29.27,181.9484A124.7989,124.7989,0,0,0,101.0324,265.26a96.3785,96.3785,0,0,1-.5209-10.5761C100.5115,250.8145,100.68,247.0067,101.0046,243.2822ZM233.851,88.25l11.87-17a125.2009,125.2009,0,0,0-29.6765-26.0408l-20.048,11.5A105.1152,105.1152,0,0,1,233.851,88.25ZM84.9691,44.3578A125.1532,125.1532,0,0,0,53.9944,71.1605L67.3782,86.1714A105.0885,105.0885,0,0,1,103.8794,56.594Z" transform="translate(-5.5484 -5.5484)"/><path class="cls-4" d="M80.948,149.8915a69.0687,69.0687,0,0,1,49.6267-66.263,38.1518,38.1518,0,0,1,4.7192-9.3068A76.9947,76.9947,0,0,0,106.879,213.6811q1.3474-3.9487,2.9531-7.6161A68.9631,68.9631,0,0,1,80.948,149.8915Z" transform="translate(-5.5484 -5.5484)"/><path class="cls-4" d="M94.5468,126.8076,100.39,128.34a54.2594,54.2594,0,0,1,26.7887-27.5674c.1532-2.3433.4191-4.6153.7764-6.8073A60.2319,60.2319,0,0,0,94.5468,126.8076Z" transform="translate(-5.5484 -5.5484)"/><path class="cls-4" d="M96.6367,158.4368H90.62a59.973,59.973,0,0,0,23.3548,39.3707q1.5153-2.6458,3.1728-5.0653A54.0321,54.0321,0,0,1,96.6367,158.4368Z" transform="translate(-5.5484 -5.5484)"/><path class="cls-4" d="M199.7211,128.5453l5.8162-1.5254a60.1689,60.1689,0,0,0-39.1967-34.9813c.45,2.1063.8108,4.2986,1.07,6.564A54.2383,54.2383,0,0,1,199.7211,128.5453Z" transform="translate(-5.5484 -5.5484)"/><polygon class="cls-4" points="204.513 136.78 198.263 130.301 177.632 133.617 174.47 143.105 183.957 149.43 201.351 143.105 204.513 136.78"/><polygon class="cls-4" points="85.204 136.78 91.454 130.301 112.085 133.617 115.247 143.105 105.76 149.43 88.367 143.105 85.204 136.78"/><path class="cls-4" d="M207.1456,168.0818a59.8827,59.8827,0,0,0,2.2345-9.645h-6.0148a53.9181,53.9181,0,0,1-1.1688,5.4265Q204.8247,165.9642,207.1456,168.0818Z" transform="translate(-5.5484 -5.5484)"/><path class="cls-4" d="M188.1239,188.1156a54.1445,54.1445,0,0,1-4.8827,4.3264q1.6689,2.4083,3.1985,5.0512a60.1123,60.1123,0,0,0,7.4472-6.7811C192.0112,189.9436,190.084,189.071,188.1239,188.1156Z" transform="translate(-5.5484 -5.5484)"/><path class="cls-4" d="M219.0525,149.8915a68.8192,68.8192,0,0,1-4.8694,25.4576,37.89,37.89,0,0,1,5.2243,7.84,76.97,76.97,0,0,0-61.159-109.8416,36.0671,36.0671,0,0,1,5.057,8.7854A69.0657,69.0657,0,0,1,219.0525,149.8915Z" transform="translate(-5.5484 -5.5484)"/><path class="cls-4" d="M203.2191,193.8529A69.4186,69.4186,0,0,1,190.62,205.7386q1.6173,3.6591,2.9828,7.6129A77.4062,77.4062,0,0,0,212.2769,195.12,35.4389,35.4389,0,0,1,203.2191,193.8529Z" transform="translate(-5.5484 -5.5484)"/><path class="cls-4" d="M156.6042,140.4838l-.0187.0192c-.0384-.0258-.0743-.0536-.11-.0813L150,72.8128h-6.032l-5.5434,68.0815.0266.0047c0,.1345-.02.2608-.0172.3964a20.9311,20.9311,0,0,0,.3378,3.2869,10.5193,10.5193,0,0,0,.982,3.5094,11.2778,11.2778,0,0,0,5.1782,6.2474c.5067.3944,1.03.7783,1.5895,1.1364.1142.0731.2322.1212.3472.192l-.0094.0246,67.2129,36.9469,3.5129-4.9069Z" transform="translate(-5.5484 -5.5484)"/><path class="cls-4" d="M165.1756,233.0324a11.3062,11.3062,0,0,1-10.92-8.3987l24.8473-9.5038-5.93-14.7611-23.1773,9.3776-23.214-9.3565-5.9171,14.73,24.62,9.7009a11.3042,11.3042,0,0,1-10.8662,8.2118c-.35,0-.6951-.02-1.0367-.0516l-5.0039,7.0054a19.1577,19.1577,0,0,0,21.3188-6.5926,19.1379,19.1379,0,0,0,21.9569,6.3623l-4.9109-6.8744A11.3411,11.3411,0,0,1,165.1756,233.0324Z" transform="translate(-5.5484 -5.5484)"/><path class="cls-4" d="M227.3417,91.5339l-8.0508,9.1844a84.9051,84.9051,0,0,1-23.3125,120.49,118.0289,118.0289,0,0,1,2.53,12.408A96.8466,96.8466,0,0,0,227.3417,91.5339Z" transform="translate(-5.5484 -5.5484)"/><path class="cls-4" d="M65.0732,149.7922a84.5118,84.5118,0,0,1,15.5941-49.016L72.615,91.589a96.8489,96.8489,0,0,0,29.4259,142.3433,118.181,118.181,0,0,1,2.4917-12.3971A84.8631,84.8631,0,0,1,65.0732,149.7922Z" transform="translate(-5.5484 -5.5484)"/><path class="cls-4" d="M150,52.96a96.4312,96.4312,0,0,0-41.5532,9.3557l5.9249,10.3865a84.9079,84.9079,0,0,1,71.184-.0332L191.48,62.2827A96.4379,96.4379,0,0,0,150,52.96Z" transform="translate(-5.5484 -5.5484)"/></svg>